HIERARCHY
ROOT Hips
{
	OFFSET 0.000000 0.000000 0.000000
	CHANNELS 6 Xposition Yposition Zposition Xrotation Yrotation Zrotation
	JOINT C_ctrl
	{
		OFFSET 0.000000 35.040482 -0.000011
		CHANNELS 3 Xrotation Yrotation Zrotation
		JOINT Bip01
		{
			OFFSET -41.537640 41.789009 -0.000007
			CHANNELS 3 Xrotation Yrotation Zrotation
			JOINT Bip01_Pelvis
			{
				OFFSET -2.462887 0.000000 0.000000
				CHANNELS 3 Xrotation Yrotation Zrotation
				JOINT BN_Tail_01
				{
					OFFSET -11.399368 7.351341 -0.000013
					CHANNELS 3 Xrotation Yrotation Zrotation
					JOINT BN_Tail_02
					{
						OFFSET -11.365196 -0.343025 0.000012
						CHANNELS 3 Xrotation Yrotation Zrotation
						JOINT BN_Tail_03
						{
							OFFSET -15.076256 -0.454979 0.000017
							CHANNELS 3 Xrotation Yrotation Zrotation
							JOINT BN_Tail_04
							{
								OFFSET -17.395691 -0.525002 0.000016
								CHANNELS 3 Xrotation Yrotation Zrotation
								JOINT BN_Tail_05
								{
									OFFSET -16.699837 -0.504005 0.000016
									CHANNELS 3 Xrotation Yrotation Zrotation
									End Site
									{
										OFFSET 0.503998 -16.699829 0.000067
									}
								}
							}
						}
					}
				}
				JOINT Bip01_Spine
				{
					OFFSET 8.297798 5.916809 -0.000020
					CHANNELS 3 Xrotation Yrotation Zrotation
					JOINT Bip01_R_Thigh
					{
						OFFSET -8.297779 -5.916794 10.541781
						CHANNELS 3 Xrotation Yrotation Zrotation
						JOINT Bip01_R_Calf
						{
							OFFSET 5.631542 -22.906792 0.862690
							CHANNELS 3 Xrotation Yrotation Zrotation
							JOINT Bip01_R_HorseLink
							{
								OFFSET -16.984341 -19.231926 -3.555767
								CHANNELS 3 Xrotation Yrotation Zrotation
								JOINT Bip01_R_Foot
								{
									OFFSET 4.290367 -24.783146 0.578056
									CHANNELS 3 Xrotation Yrotation Zrotation
									JOINT Bip01_R_Toe0
									{
										OFFSET 3.561211 -5.815116 0.760802
										CHANNELS 3 Xrotation Yrotation Zrotation
										JOINT Bip01_R_Toe0Nub
										{
											OFFSET 16.135469 0.002017 1.534789
											CHANNELS 3 Xrotation Yrotation Zrotation
											End Site
											{
												OFFSET -0.000002 16.208284 -0.000056
											}
										}
									}
								}
							}
						}
					}
					JOINT Bip01_L_Thigh
					{
						OFFSET -8.297813 -5.916832 -10.541739
						CHANNELS 3 Xrotation Yrotation Zrotation
						JOINT Bip01_L_Calf
						{
							OFFSET 5.631535 -22.906792 -0.862625
							CHANNELS 3 Xrotation Yrotation Zrotation
							JOINT Bip01_L_HorseLink
							{
								OFFSET -16.984318 -19.231949 3.555875
								CHANNELS 3 Xrotation Yrotation Zrotation
								JOINT Bip01_L_Foot
								{
									OFFSET 4.290367 -24.783169 -0.577965
									CHANNELS 3 Xrotation Yrotation Zrotation
									JOINT Bip01_L_Toe0
									{
										OFFSET 3.561245 -5.815111 -0.760799
										CHANNELS 3 Xrotation Yrotation Zrotation
										JOINT Bip01_L_Toe0Nub
										{
											OFFSET 6.574303 -0.000005 -1.538561
											CHANNELS 3 Xrotation Yrotation Zrotation
											End Site
											{
												OFFSET 0.000004 -6.751935 0.000023
											}
										}
									}
								}
							}
						}
					}
					JOINT Bip01_Spine1
					{
						OFFSET 20.556803 -4.626213 -0.000025
						CHANNELS 3 Xrotation Yrotation Zrotation
						JOINT Saddle
						{
							OFFSET 17.608810 18.174690 -0.000143
							CHANNELS 3 Xrotation Yrotation Zrotation
							End Site
							{
								OFFSET -0.000063 -0.000061 -22.448387
							}
						}
						JOINT BN_center
						{
							OFFSET 10.743275 -13.417107 -0.172041
							CHANNELS 3 Xrotation Yrotation Zrotation
							End Site
							{
								OFFSET 22.434088 0.553078 -0.579614
							}
						}
						JOINT Bip01_Spine2
						{
							OFFSET 24.765072 -2.054115 -0.000032
							CHANNELS 3 Xrotation Yrotation Zrotation
							JOINT Handle
							{
								OFFSET 63.735676 16.430748 -16.052464
								CHANNELS 3 Xrotation Yrotation Zrotation
								JOINT IK_Chain01
								{
									OFFSET -4.713058 -6.020439 0.185448
									CHANNELS 3 Xrotation Yrotation Zrotation
									End Site
									{
										OFFSET -0.000023 -0.000023 -7.648071
									}
								}
							}
							JOINT BN_hair04_01
							{
								OFFSET 1.987491 16.256981 -2.049672
								CHANNELS 3 Xrotation Yrotation Zrotation
								JOINT BN_hair04_02
								{
									OFFSET -1.318762 -3.831451 -6.174704
									CHANNELS 3 Xrotation Yrotation Zrotation
									JOINT BN_hair04_03
									{
										OFFSET -0.827490 -5.886627 -5.656666
										CHANNELS 3 Xrotation Yrotation Zrotation
										End Site
										{
											OFFSET -2.658262 5.010620 -5.929780
										}
									}
								}
							}
							JOINT Bip01_Neck
							{
								OFFSET 25.574577 9.433014 -0.000084
								CHANNELS 3 Xrotation Yrotation Zrotation
								JOINT Bip01_R_Clavicle
								{
									OFFSET -16.535652 0.011192 6.705692
									CHANNELS 3 Xrotation Yrotation Zrotation
									JOINT Bip01_R_UpperArm
									{
										OFFSET 20.272621 -12.959984 2.510816
										CHANNELS 3 Xrotation Yrotation Zrotation
										JOINT Bip01_R_Forearm
										{
											OFFSET -13.633509 -15.503704 -0.653585
											CHANNELS 3 Xrotation Yrotation Zrotation
											JOINT Bip01_R_Hand
											{
												OFFSET 2.580030 -27.804676 -1.136415
												CHANNELS 3 Xrotation Yrotation Zrotation
												JOINT Bip01_R_Finger0
												{
													OFFSET -0.281744 -19.659061 -0.398649
													CHANNELS 3 Xrotation Yrotation Zrotation
													JOINT Bip01_Xtra02
													{
														OFFSET 4.152210 -5.712314 0.433813
														CHANNELS 3 Xrotation Yrotation Zrotation
														JOINT Bip01_Xtra02Nub
														{
															OFFSET 15.457960 0.041654 0.507982
															CHANNELS 3 Xrotation Yrotation Zrotation
															End Site
															{
																OFFSET -15.421730 -0.157725 -1.163459
															}
														}
													}
													JOINT Bip01_R_Finger0Nub
													{
														OFFSET 8.362326 -9.718440 -0.143142
														CHANNELS 3 Xrotation Yrotation Zrotation
														End Site
														{
															OFFSET -1.213036 -0.198171 9.872291
														}
													}
												}
											}
										}
									}
								}
								JOINT Bip01_L_Clavicle
								{
									OFFSET -16.535673 0.011162 -6.705583
									CHANNELS 3 Xrotation Yrotation Zrotation
									JOINT Bip01_L_UpperArm
									{
										OFFSET 20.272615 -12.959999 -2.510836
										CHANNELS 3 Xrotation Yrotation Zrotation
										JOINT Bip01_L_Forearm
										{
											OFFSET -13.633495 -15.503681 0.653678
											CHANNELS 3 Xrotation Yrotation Zrotation
											JOINT Bip01_L_Hand
											{
												OFFSET 2.579988 -27.804686 1.136487
												CHANNELS 3 Xrotation Yrotation Zrotation
												JOINT Bip01_L_Finger0
												{
													OFFSET -0.281765 -19.659058 0.398696
													CHANNELS 3 Xrotation Yrotation Zrotation
													JOINT Bip01_Xtra01
													{
														OFFSET 4.083549 -5.738758 -0.666714
														CHANNELS 3 Xrotation Yrotation Zrotation
														JOINT Bip01_Xtra01Nub
														{
															OFFSET 6.758158 -0.395525 -0.023239
															CHANNELS 3 Xrotation Yrotation Zrotation
															End Site
															{
																OFFSET 6.764923 -0.254147 -0.029908
															}
														}
													}
													JOINT Bip01_L_Finger0Nub
													{
														OFFSET -0.012636 -9.629153 0.045740
														CHANNELS 3 Xrotation Yrotation Zrotation
														End Site
														{
															OFFSET 0.988407 0.004791 8.293357
														}
													}
												}
											}
										}
									}
								}
								JOINT BN_hair03_01
								{
									OFFSET -5.894140 16.270622 -2.498433
									CHANNELS 3 Xrotation Yrotation Zrotation
									JOINT BN_hair03_02
									{
										OFFSET -0.189278 -7.800507 -6.219162
										CHANNELS 3 Xrotation Yrotation Zrotation
										JOINT BN_hair03_03
										{
											OFFSET 0.612345 -10.844475 -3.370718
											CHANNELS 3 Xrotation Yrotation Zrotation
											End Site
											{
												OFFSET -2.273296 2.862007 -10.769416
											}
										}
									}
								}
								JOINT Bip01_Neck1
								{
									OFFSET 9.383755 11.908699 -0.000007
									CHANNELS 3 Xrotation Yrotation Zrotation
									JOINT BN_hair02_01
									{
										OFFSET 9.126320 18.808022 -1.420810
										CHANNELS 3 Xrotation Yrotation Zrotation
										JOINT BN_hair02_02
										{
											OFFSET 0.393478 -5.181091 -5.248574
											CHANNELS 3 Xrotation Yrotation Zrotation
											JOINT BN_hair02_03
											{
												OFFSET 0.762280 -8.167076 -0.230047
												CHANNELS 3 Xrotation Yrotation Zrotation
												End Site
												{
													OFFSET -0.025837 -1.251419 -8.109770
												}
											}
										}
									}
									JOINT Bip01_Head
									{
										OFFSET 14.266129 10.475403 -0.000008
										CHANNELS 3 Xrotation Yrotation Zrotation
										JOINT BN_Reins_01
										{
											OFFSET 18.547455 -15.740112 -0.000035
											CHANNELS 3 Xrotation Yrotation Zrotation
											JOINT BN_Reins_02
											{
												OFFSET -5.372810 -5.884506 0.000028
												CHANNELS 3 Xrotation Yrotation Zrotation
												JOINT BN_Reins_03
												{
													OFFSET -6.395866 -15.947449 0.000070
													CHANNELS 3 Xrotation Yrotation Zrotation
													JOINT BN_Halter_R_01
													{
														OFFSET -1.234055 -3.096100 7.096737
														CHANNELS 3 Xrotation Yrotation Zrotation
														End Site
														{
															OFFSET 10.514435 -4.176861 -0.000004
														}
													}
													JOINT BN_Halter_L_01
													{
														OFFSET -1.234062 -3.096146 -7.096726
														CHANNELS 3 Xrotation Yrotation Zrotation
														End Site
														{
															OFFSET -10.514435 4.176865 -0.000000
														}
													}
													JOINT BN_Reins_04
													{
														OFFSET -6.737644 -16.971684 0.000074
														CHANNELS 3 Xrotation Yrotation Zrotation
														JOINT BN_Halter_R_02
														{
															OFFSET -4.688869 -11.781956 7.096771
															CHANNELS 3 Xrotation Yrotation Zrotation
															End Site
															{
																OFFSET 14.669624 -5.827511 -0.000006
															}
														}
														JOINT BN_Halter_L_02
														{
															OFFSET -4.688892 -11.782017 -7.096693
															CHANNELS 3 Xrotation Yrotation Zrotation
															End Site
															{
																OFFSET -14.669624 5.827507 -0.000002
															}
														}
														JOINT BN_Reins_05
														{
															OFFSET -6.822578 -16.971161 0.000074
															CHANNELS 3 Xrotation Yrotation Zrotation
															JOINT BN_Reins_06
															{
																OFFSET -6.140354 -15.095148 0.000066
																CHANNELS 3 Xrotation Yrotation Zrotation
																End Site
																{
																	OFFSET -15.095150 6.140352 -0.000002
																}
															}
														}
													}
												}
											}
										}
										JOINT BN_hair01_01
										{
											OFFSET 8.957344 8.870956 0.112121
											CHANNELS 3 Xrotation Yrotation Zrotation
											JOINT BN_hair01_02
											{
												OFFSET 6.002075 -2.962952 -3.121264
												CHANNELS 3 Xrotation Yrotation Zrotation
												End Site
												{
													OFFSET 5.917702 3.813591 -2.232396
												}
											}
										}
										JOINT BN_Eyebrow_R
										{
											OFFSET 11.795959 -0.430496 4.449781
											CHANNELS 3 Xrotation Yrotation Zrotation
											JOINT Bip01_Xtra06Nub
											{
												OFFSET 2.936661 -0.262573 3.246701
												CHANNELS 3 Xrotation Yrotation Zrotation
												End Site
												{
													OFFSET 2.768745 0.208199 3.394807
												}
											}
										}
										JOINT BN_Eyebrow_L
										{
											OFFSET 11.586395 -0.445618 -4.441728
											CHANNELS 3 Xrotation Yrotation Zrotation
											JOINT Bip01_Xtra05Nub
											{
												OFFSET 3.244698 -0.349442 -4.416700
												CHANNELS 3 Xrotation Yrotation Zrotation
												End Site
												{
													OFFSET 3.053162 0.072495 -4.564033
												}
											}
										}
										JOINT Bip01_R_Ear_01
										{
											OFFSET 7.142960 7.567184 4.311657
											CHANNELS 3 Xrotation Yrotation Zrotation
											JOINT Bip01_Xtra04Nub
											{
												OFFSET 9.464531 9.264214 1.682953
												CHANNELS 3 Xrotation Yrotation Zrotation
												End Site
												{
													OFFSET 8.448181 10.159340 1.910823
												}
											}
										}
										JOINT Bip01__L_Ear_01
										{
											OFFSET 7.214943 7.717056 -4.356771
											CHANNELS 3 Xrotation Yrotation Zrotation
											JOINT Bip01_Xtra03Nub
											{
												OFFSET 9.230225 8.944366 -2.322746
												CHANNELS 3 Xrotation Yrotation Zrotation
												End Site
												{
													OFFSET 8.170288 9.841324 -2.643566
												}
											}
										}
										JOINT Bip01_Jaw
										{
											OFFSET 9.196068 -4.110695 -0.000013
											CHANNELS 3 Xrotation Yrotation Zrotation
											JOINT Bip01_Ponytail1Nub
											{
												OFFSET 10.976463 -21.082108 -0.000053
												CHANNELS 3 Xrotation Yrotation Zrotation
												End Site
												{
													OFFSET 11.247093 -20.938980 0.000113
												}
											}
										}
										JOINT Bip01_HeadNub
										{
											OFFSET 29.954575 -18.249489 -0.000063
											CHANNELS 3 Xrotation Yrotation Zrotation
											End Site
											{
												OFFSET -9.198448 -13.366348 0.000168
											}
										}
									}
								}
							}
						}
					}
				}
			}
		}
	}
}
MOTION
Frames: 4
Frame Time: 0.033333
0.000000 0.000000 0.000000 0.000008 0.000000 -0.000000 -0.000000 0.000000 -0.000000 -0.033098 -1.997831 -0.901067 0.113023 -0.191689 -0.006568 7.232856 -7.675551 34.814212 3.661181 -7.529507 16.701020 -6.728886 17.612881 20.750682 -2.291230 11.736790 12.145470 -1.893912 30.500971 12.849266 -0.054796 1.352103 5.828767 -2.690337 11.436900 6.159630 1.432666 -0.012372 -7.262262 2.199224 -0.093980 -11.167087 1.135670 -11.150310 10.211577 0.395850 0.551483 -2.161369 0.000101 -0.000137 0.000004 -1.451995 -9.171316 0.470283 -1.003544 -0.010414 -5.085365 -2.856101 0.206433 -14.541555 1.897815 10.506519 14.245784 0.011182 0.000010 0.053442 -0.008661 0.000480 -0.038577 -0.926154 1.627663 -2.595415 0.917530 -0.020778 6.784384 -0.004088 -0.188110 0.020280 -1.711377 1.281490 -8.666669 0.000078 -0.000112 -0.000056 -0.000045 -0.014955 0.015042 9.790026 1.265055 -1.483920 1.764200 2.463943 -5.387168 8.584253 6.673157 -13.455150 1.910014 -2.652784 -9.185167 -1.390751 5.070158 24.069006 -10.156618 -6.685944 -2.196566 0.499263 -1.525285 39.941874 7.209980 -10.219414 -104.085649 3.714152 -1.788856 -70.415337 0.358145 -0.070891 -4.984151 -0.781884 0.140347 -0.478794 -0.804180 0.123449 -0.482658 -3.987509 2.458011 5.502101 6.357158 -0.793557 8.323335 -0.046894 0.549021 13.464468 -7.104462 4.541801 -5.958065 6.817554 -3.538236 -5.828302 -2.866062 1.004975 1.062315 0.028240 0.072136 2.451899 -0.000913 0.100573 2.451955 11.386472 7.529386 -8.508194 -20.133357 -1.739110 -0.888101 31.499767 9.924186 -19.092749 -1.132313 -0.581892 -4.123717 3.423296 -0.387777 -1.126827 0.775259 -1.119113 -6.728931 -24.967739 3.488118 -6.972017 4.022445 -3.076575 -16.505465 -0.000028 0.000325 33.480074 -0.441787 -0.458728 -72.796102 -0.000060 -0.000073 -21.993986 0.000019 -0.000008 -0.026805 0.000002 -0.000016 0.012747 -0.000097 -0.000109 -34.639858 0.000035 0.000015 0.015163 0.000025 -0.000010 0.012720 -0.000048 -0.000054 -24.223454 0.000013 -0.000013 -0.000046 7.541917 2.087730 15.364365 2.140933 -0.448250 4.558504 -15.120857 -1.161501 -15.656004 0.024347 -0.030010 11.786780 9.467733 0.723970 -14.602299 0.023221 -0.032326 11.715996 -6.672171 -8.065081 5.824701 0.050286 0.015070 11.755985 -4.207143 -4.601438 9.342389 0.050155 0.014734 11.743130 -0.390284 0.093045 -2.417303 -0.002003 -0.023997 11.750687 0.000072 -0.000033 11.750679 
0.000000 0.000000 0.000000 0.000008 0.000000 -0.000000 -0.000000 0.000000 -0.000000 -0.033165 -1.997845 -0.904751 0.143790 -0.237195 -0.009843 7.587810 -8.097667 34.843636 4.037808 -8.425255 16.722316 -6.489513 17.060095 20.725594 -2.081105 10.963162 12.147175 -1.661082 30.100114 12.856117 -0.081184 1.427343 5.780047 -2.693808 11.405511 6.261188 1.445373 -0.013298 -7.326784 2.202085 -0.094384 -11.181721 1.107293 -11.183407 10.322276 0.408996 0.570740 -2.243100 0.000101 -0.000137 0.000004 -1.431063 -9.212655 0.539165 -1.012982 -0.010089 -5.133206 -2.850499 0.205301 -14.512632 1.872886 10.509801 14.252464 0.011336 0.000012 0.054164 -0.008661 0.000479 -0.038577 -0.932074 1.635633 -2.577750 0.917530 -0.020778 6.784382 -0.004088 -0.188110 0.020281 -1.701127 1.316454 -8.470286 0.000078 -0.000112 -0.000055 -0.000045 -0.014955 0.015042 9.677995 1.234632 -1.455874 1.609018 2.416049 -5.286886 7.692137 6.726459 -13.109860 1.955236 -2.692839 -9.076468 -1.473553 5.169699 24.443101 -10.267519 -6.087970 -3.456412 0.590378 -1.634488 43.411890 7.379264 -10.406692 -103.000694 4.057432 -2.122686 -68.490337 0.356261 -0.071956 -4.938786 -0.781885 0.140347 -0.478793 -0.804181 0.123448 -0.482652 -4.039526 2.503643 5.361297 6.299315 -0.877314 8.182410 -0.046461 0.546913 13.412000 -7.078271 4.545806 -5.760257 6.877776 -3.485202 -5.883862 -2.892757 1.013819 0.914797 0.028240 0.072136 2.451900 -0.000913 0.100574 2.451955 11.139531 7.472647 -8.391132 -20.295504 -1.753185 -0.889753 30.521489 9.851493 -18.667544 -1.177024 -0.494764 -4.767032 3.790460 -0.650623 -1.138065 0.973371 -1.101881 -6.665325 -25.523367 3.471619 -6.866840 4.013079 -2.709933 -15.634757 -0.000029 0.000325 33.480078 -0.441787 -0.458728 -72.796108 -0.000060 -0.000073 -21.993986 0.000019 -0.000008 -0.026805 0.000002 -0.000016 0.012749 -0.000096 -0.000109 -34.639861 0.000036 0.000015 0.015161 0.000025 -0.000010 0.012721 -0.000047 -0.000054 -24.223450 0.000013 -0.000013 -0.000050 7.597289 2.099024 15.475595 2.127528 -0.445567 4.529399 -15.119302 -1.163797 -15.662766 0.024346 -0.030009 11.786785 9.445767 0.604853 -14.568454 0.023229 -0.032330 11.715989 -6.565720 -7.956748 5.140563 0.050288 0.015069 11.755987 -4.196933 -4.722920 8.639943 0.050155 0.014735 11.743125 -0.462896 0.110036 -2.576379 -0.002002 -0.023998 11.750679 0.000071 -0.000033 11.750682 
0.000000 0.000000 0.000000 0.000008 0.000000 -0.000000 -0.000000 0.000000 -0.000000 -0.033249 -1.997874 -0.908893 0.168226 -0.276321 -0.009637 7.877055 -8.439683 34.883484 4.391533 -9.279825 16.782359 -6.232455 16.454236 20.689613 -1.888455 10.219906 12.144368 -1.426304 29.691331 12.863631 -0.105010 1.492475 5.745024 -2.697737 11.375579 6.367763 1.464669 -0.014729 -7.424798 2.201339 -0.094279 -11.177901 1.076045 -11.213761 10.419079 0.422676 0.592640 -2.315455 0.000101 -0.000137 0.000004 -1.405503 -9.253066 0.619833 -1.029720 -0.009494 -5.218047 -2.840564 0.203308 -14.461341 1.847712 10.513107 14.259210 0.011491 0.000011 0.054885 -0.008661 0.000477 -0.038577 -0.933785 1.646687 -2.574127 0.917530 -0.020778 6.784383 -0.004088 -0.188110 0.020280 -1.670079 1.340157 -8.275936 0.000078 -0.000112 -0.000056 -0.000045 -0.014955 0.015042 9.593547 1.228252 -1.443759 1.392292 2.366507 -5.170378 6.786626 6.774317 -12.757998 1.997154 -2.730798 -8.925689 -1.530022 5.252138 24.623102 -10.296730 -5.403309 -4.636181 0.693916 -1.743920 47.087853 7.620041 -10.529975 -101.497041 4.450277 -2.446333 -66.156365 0.354384 -0.073018 -4.892605 -0.781885 0.140347 -0.478795 -0.804181 0.123449 -0.482658 -4.079891 2.551820 5.178711 6.225185 -0.962841 8.017698 -0.046195 0.545607 13.379512 -7.051940 4.549571 -5.555517 6.941933 -3.428586 -5.943939 -2.920484 1.018918 0.668933 0.028240 0.072136 2.451900 -0.000914 0.100573 2.451955 10.921374 7.419063 -8.283419 -20.412637 -1.768217 -0.865965 29.534472 9.770820 -18.239638 -1.242732 -0.377360 -5.442146 4.213473 -0.909139 -1.152951 1.211680 -1.084267 -6.598282 -26.084400 3.453916 -6.760804 3.977407 -2.263079 -14.686162 -0.000029 0.000324 33.480085 -0.441787 -0.458728 -72.796108 -0.000060 -0.000073 -21.993988 0.000019 -0.000008 -0.026807 0.000002 -0.000016 0.012745 -0.000096 -0.000109 -34.639861 0.000036 0.000015 0.015166 0.000026 -0.000010 0.012718 -0.000047 -0.000054 -24.223452 0.000014 -0.000013 -0.000050 7.616185 2.102767 15.512755 2.115647 -0.443162 4.503587 -15.099130 -1.176046 -15.698693 0.024347 -0.030011 11.786778 9.424604 0.484940 -14.534750 0.023228 -0.032329 11.715987 -6.419439 -7.845330 4.423090 0.050287 0.015070 11.755983 -4.156552 -4.848555 7.889605 0.050155 0.014735 11.743126 -0.545580 0.128693 -2.729912 -0.002003 -0.023998 11.750678 0.000072 -0.000034 11.750675 
0.000000 0.000000 0.000000 0.000008 0.000000 -0.000000 -0.000000 0.000000 -0.000000 -0.033337 -1.997857 -0.913150 0.186557 -0.299864 -0.009429 8.086895 -8.685679 34.931274 4.706363 -10.070775 16.873228 -5.955325 15.816655 20.640039 -1.718029 9.548198 12.140555 -1.143204 28.887711 12.748081 -0.122000 1.549082 5.717501 -2.701545 11.346250 6.472236 1.487491 -0.016461 -7.540728 2.197796 -0.093779 -11.159782 1.048614 -11.239554 10.511522 0.435002 0.609293 -2.381694 0.000101 -0.000137 0.000004 -1.380384 -9.292647 0.698960 -1.051547 -0.008681 -5.328673 -2.828073 0.200814 -14.396867 1.823026 10.516356 14.265837 0.011632 0.000011 0.055546 -0.008661 0.000481 -0.038577 -0.938192 1.661540 -2.573930 0.917530 -0.020778 6.784382 -0.004088 -0.188110 0.020280 -1.626171 1.359451 -8.085583 0.000078 -0.000112 -0.000057 -0.000045 -0.014955 0.015042 9.546538 1.238889 -1.448262 1.122474 2.312528 -5.029520 5.475141 6.760187 -12.180094 2.028364 -2.768613 -8.745601 -1.567673 5.313480 24.620807 -10.255053 -4.684529 -5.687274 0.802242 -1.844726 50.698674 7.909042 -10.592849 -99.638875 4.866385 -2.728489 -63.552144 0.346307 -0.074739 -4.803526 -0.781884 0.140346 -0.478793 -0.804180 0.123449 -0.482657 -4.106701 2.600542 4.966817 6.137631 -1.048142 7.848083 -0.046031 0.544805 13.359555 -7.028649 4.553517 -5.352186 7.003204 -3.373032 -6.002819 -2.947832 1.024235 0.427884 0.028240 0.072136 2.451900 -0.000914 0.100573 2.451955 10.735266 7.370432 -8.187133 -20.527507 -1.783018 -0.842672 28.567471 9.684716 -17.821569 -1.321734 -0.238698 -6.118385 4.674765 -1.152450 -1.170711 1.481852 -1.065407 -6.532975 -26.634507 3.435569 -6.657008 3.911367 -1.769191 -13.694900 -0.000029 0.000325 33.480081 -0.441786 -0.458729 -72.796108 -0.000059 -0.000072 -21.993984 0.000019 -0.000008 -0.026807 0.000002 -0.000016 0.012745 -0.000096 -0.000109 -34.639858 0.000036 0.000015 0.015163 0.000026 -0.000010 0.012716 -0.000048 -0.000054 -24.223454 0.000013 -0.000013 -0.000050 7.575771 2.097234 15.432725 2.268981 -0.471911 4.833590 -15.079366 -1.188089 -15.733918 0.024343 -0.030008 11.786783 9.499121 0.408406 -14.543974 0.023231 -0.032325 11.715985 -6.245478 -7.726794 3.693975 0.050288 0.015070 11.755987 -4.093768 -4.977206 7.126043 0.050151 0.014732 11.743125 -0.626611 0.147205 -2.880427 -0.002003 -0.023997 11.750676 0.000072 -0.000033 11.750678 
